FILE "Dungeon Master II - Skullkeep (1994)(JVC)(EU)(en).img" BINARY
  TRACK 01 MODE1/2352
    INDEX 01 00:00:00
  TRACK 02 AUDIO
    PREGAP 00:02:00
    INDEX 01 02:51:68
  TRACK 03 AUDIO
    INDEX 01 05:56:48
  TRACK 04 AUDIO
    INDEX 01 10:02:40
  TRACK 05 AUDIO
    INDEX 01 11:34:15
  TRACK 06 AUDIO
    INDEX 01 13:34:64
  TRACK 07 AUDIO
    INDEX 01 18:27:66
